# xmcd CD database file
#
# Track frame offsets:
#	150
#	31389
#	41622
#	53059
#	86359
#	99674
#	105549
#	116892
#	118183
#	132746
#	165002
#	182950
#	194315
#
# Disc length: 2852 seconds
#
# Revision: 1
# Processed by: cddbd v1.5.2PL0 Copyright (c) Steve Scherf et al.
# Submitted via: CDex 1.91
#
DISCID=af0b220d
DTITLE=Audra McDonald - Lady Day at Emerson's Bar and Grill (2)
DYEAR=2014
DGENRE=Musical
TTITLE0="Nobody but me ever liked Sonny ..."
TTITLE1=Foolin' Myself/Somebody's on My Mind
TTITLE2=Easy Living
TTITLE3="I was singin' with Artie's band ..."
TTITLE4=Strange Fruit
TTITLE5="It's bad again, Jimmy ..."
TTITLE6=Blues Break
TTITLE7="Now I'll take a little break right here ..."
TTITLE8=T'ain't Nobody's Biz-ness If I Do
TTITLE9="I want you all to meet Pepi ..."
TTITLE10=I was doin' the bad drugs heavy ..."
TTITLE11=Don't Explain/What a Little Moonlight Can Do (Reprise)
TTITLE12=Deep Song
EXTD=YEAR: 2014
EXTT0=
EXTT1=
EXTT2=
EXTT3=
EXTT4=
EXTT5=
EXTT6=
EXTT7=
EXTT8=
EXTT9=
EXTT10=
EXTT11=
EXTT12=
PLAYORDER=
